# xmcd
#
# Track frame offsets: 
#        150
#        20087
#        39621
#        57210
#        74764
#        94076
#        113043
#        129513
#        148161
#        162943
#        181823
#        202530
#
# Disc length: 2971 seconds
#
# Revision: 0
# Processed by: cddbd v1.5.2PL0 Copyright (c) Steve Scherf et al.
# Submitted via: ExactAudioCopy v1.0b3
#
DISCID=a70b990c
DTITLE=성시경 - 처음
DYEAR=2011
DGENRE=Ballad
TTITLE0=처음
TTITLE1=노래가 되어
TTITLE2=네가 불던 날
TTITLE3=난 좋아
TTITLE4=우리 참 좋았는데 (duet with 박정현)
TTITLE5=아니면서
TTITLE6=태양계
TTITLE7=오 나의 여신님
TTITLE8=Thank you
TTITLE9=끝에
TTITLE10=그대네요 (duet with 아이유, bonus track)
TTITLE11=너는 나의 봄이다 (bonus track)
EXTD=
EXTT0=
EXTT1=
EXTT2=
EXTT3=
EXTT4=
EXTT5=
EXTT6=
EXTT7=
EXTT8=
EXTT9=
EXTT10=
EXTT11=
PLAYORDER=
